# xmcd
#
# Track frame offsets:
#	150
#	37630
#	77970
#	120416
#	164381
#	255263
#	308598
#
# Disc length: 4790 seconds
#
# Revision: 1
# Processed by: cddbd v1.5.2PL0 Copyright (c) Steve Scherf et al.
# Submitted via: audiograbber 1.83.01
#
DISCID=4212b407
DTITLE=The Cinematic Orchestra - The Cinematic Orchestra Presents In Motion #1
DYEAR=2012
DGENRE=Soundtrack/Jazz
TTITLE0=The Cinematic Orchestra - Necrology
TTITLE1=Austin Peralta - Lapis
TTITLE2=Dorian Concept and Tom Chant - Outer Space
TTITLE3=Dorian Concept and Tom Chant - Dream Work
TTITLE4=The Cinematic Orchestra - Entr'acte
TTITLE5=Grey Reverend - Regen
TTITLE6=The Cinematic Orchestra - Manhatta
EXTD=
EXTT0=
EXTT1=
EXTT2=
EXTT3=
EXTT4=
EXTT5=
EXTT6=
PLAYORDER=
